<svg xmlns="http://www.w3.org/2000/svg" width="1200" height="912" viewBox="0 0 1200 912" role="img" aria-labelledby="title desc">
<title id="title">Hospital help-desk conversations</title><desc id="desc">A public architecture sketch of documented components. Connections summarize the workflow; internal interfaces are omitted.</desc>
<rect width="100%" height="100%" rx="16" fill="#fafbf9"/>
<g font-family="Kalam, Comic Sans MS, Segoe Print, cursive" fill="#202523">
<text x="600" y="58" text-anchor="middle" font-size="34">Hospital help-desk conversations</text>
<text x="600" y="92" text-anchor="middle" font-family="Arial, sans-serif" font-size="18" fill="#66715e">PUBLIC ARCHITECTURE SKETCH</text>
<path d="M600 258 C600 292 600 290 600 316" fill="none" stroke="#202523" stroke-width="2" stroke-linecap="round"/>
<path d="M593 305 L600 316 L607 305" fill="none" stroke="#202523" stroke-width="2" stroke-linecap="round" stroke-linejoin="round"/>
<path d="M600 442 C600 476 600 474 600 500" fill="none" stroke="#202523" stroke-width="2" stroke-linecap="round"/>
<path d="M593 489 L600 500 L607 489" fill="none" stroke="#202523" stroke-width="2" stroke-linecap="round" stroke-linejoin="round"/>
<path d="M388 142 L812 140 L815 256 L385 259 Z" fill="#edf0ff" stroke="#202523" stroke-width="2" stroke-linejoin="round"/>
<text x="600" y="189" text-anchor="middle" font-size="27">User message</text>
<text x="600" y="224" text-anchor="middle" font-family="Arial, sans-serif" font-size="20" fill="#536549">Hospital help desk</text>
<path d="M388 326 L812 324 L815 440 L385 443 Z" fill="#ffffff" stroke="#202523" stroke-width="2" stroke-linejoin="round"/>
<text x="600" y="373" text-anchor="middle" font-size="27">Chatbot conversation</text>
<text x="600" y="408" text-anchor="middle" font-family="Arial, sans-serif" font-size="20" fill="#536549">Rasa</text>
<path d="M388 510 L812 508 L815 624 L385 627 Z" fill="#dbf796" stroke="#202523" stroke-width="2" stroke-linejoin="round"/>
<text x="600" y="557" text-anchor="middle" font-size="27">Help-desk response</text>
<text x="600" y="592" text-anchor="middle" font-family="Arial, sans-serif" font-size="20" fill="#536549">Conversational assistance</text>
<path d="M70 697 H865" stroke="#aab69e" stroke-width="1.5" stroke-dasharray="5 6"/>
<text x="75" y="740" font-size="25" fill="#243de2">Supporting engineering</text>
<text x="75" y="774" font-size="19" font-family="Arial, sans-serif">Rasa hospital help-desk chatbot / related NLP work: ClinicalBERT adapted to requirements</text>
<text x="75" y="838" font-size="16" fill="#66715e" font-family="Arial, sans-serif">High-level representation. No internal endpoints, configurations or client data.</text>
</g></svg>